<svg width="235" height="57" viewBox="0 0 235 57" fill="none" xmlns="http://www.w3.org/2000/svg">
<g clip-path="url(#clip0_153_412)">
<mask id="mask0_153_412" style="mask-type:luminance" maskUnits="userSpaceOnUse" x="0" y="0" width="235" height="57">
<path d="M0.000732422 0H234.828V56.9995H0.000732422V0Z" fill="white"/>
</mask>
<g mask="url(#mask0_153_412)">
<path d="M234.907 52.1675H177.57V56.9045H234.907V52.1675Z" fill="#E42328"/>
<path d="M177.571 52.1675H119.339V56.9045H177.571V52.1675Z" fill="white"/>
<path d="M119.338 52.1675H62.0017V56.9045H119.338V52.1675Z" fill="#253784"/>
<path d="M25.289 53.4174C38.4367 53.4174 49.0397 42.488 49.0397 29.0747C49.0397 15.6612 38.4367 4.73169 25.289 4.73169C12.1416 4.73169 1.53833 15.6612 1.53833 29.0747C1.53833 42.488 12.1416 53.4174 25.289 53.4174Z" stroke="white" stroke-width="2.49879"/>
<path d="M25.5741 5.25583C12.5394 5.25583 1.98999 15.805 1.98999 28.8397C1.98999 40.9354 11.1033 50.9324 22.8678 52.3133C22.7021 51.3742 20.6034 37.8425 20.6034 37.7873C20.6034 37.7322 20.6034 37.6768 20.7137 37.6768H22.1497C22.3706 37.6768 22.3706 37.5113 22.4258 37.4558L25.0217 23.7032V23.648C25.0769 23.3717 24.8008 23.3165 24.8008 23.3165H18.2283C18.2283 23.3165 17.8968 23.3165 18.0074 23.0405C18.0074 23.0405 20.1613 10.1715 20.327 9.06666C20.327 9.0115 20.3822 8.95634 20.4374 8.95634H27.452C27.5623 8.95634 27.5071 9.06666 27.5071 9.06666L27.2862 9.95055H21.984L21.0452 15.2528C21.0452 15.3631 21.0452 15.584 21.321 15.584H25.9054L25.6847 16.4679H20.9346C20.7137 16.4679 20.6585 16.6334 20.6585 16.6886L19.7195 22.0463H25.1875C25.2978 22.0463 25.2978 22.1014 25.2978 22.1014L24.9666 22.9299C24.9114 23.1508 25.1321 23.2614 25.1872 23.2614H26.5684C30.6001 23.0405 32.0915 25.0286 32.1467 26.9619C32.2019 29.0055 30.6001 31.049 28.1699 31.1594C27.452 31.2148 26.8444 30.9385 26.6787 30.9385L26.6235 30.7176C31.5943 31.27 32.9752 23.648 26.4026 24.5317L23.8618 37.7322H22.3706C22.1497 37.7322 22.1497 37.8977 22.1497 37.9531L23.9724 48.8337C23.9724 48.8337 30.1031 37.6768 30.1031 37.6216H31.5943L23.42 52.2581C24.0827 52.3133 24.8008 52.3685 25.4636 52.3685C38.4983 52.3685 49.0477 41.8193 49.0477 28.7846C49.158 15.805 38.6089 5.25583 25.5741 5.25583ZM62.9094 9.36716C62.9094 6.8618 62.9275 5.00997 62.6007 4.35619H66.1954C67.5027 4.35619 68.701 4.5742 69.4635 5.00997C70.3351 5.55449 71.0976 6.53504 71.0976 7.84209C71.0976 9.36716 70.2261 10.4567 68.9188 11.437C69.8993 12.9621 71.2064 14.5961 72.1869 15.9032C73.0584 16.7747 73.4942 17.2105 73.821 17.4283C73.4942 17.6463 72.8404 17.6463 72.2959 17.6463C71.3154 17.6463 70.7708 17.3195 70.1171 16.7747C69.1368 15.7944 67.6117 13.5068 66.9579 12.4173C66.9579 12.1995 66.7402 12.1995 66.7402 12.1995H64.7793V13.0711C64.7793 15.2497 64.9971 16.8837 64.9971 17.7553H62.4917C63.305 15.3159 62.9094 9.36716 62.9094 9.36716ZM65.1061 10.5655C65.1061 10.6745 65.1061 10.6745 65.1061 10.5655C65.4329 10.8922 66.0866 10.8922 66.9579 10.8922C67.5027 10.8922 67.8295 10.8922 67.9385 10.6742C68.483 10.1297 69.1368 9.47616 69.1368 8.38687C69.1368 6.53504 67.8295 5.55449 66.3044 5.55449H65.1061V10.5655ZM82.1826 9.33169C82.1826 6.49932 82.0294 4.89177 81.953 4.35592H87.7709C88.3832 4.35592 89.1486 4.35592 89.5313 4.20279C89.3784 4.5855 89.3784 5.35092 89.3784 6.26974C88.9955 6.11661 88.6895 6.03991 87.6178 5.88677C87.0052 5.88677 85.8571 5.73389 84.7854 5.73389C84.7854 5.73389 84.6322 5.73389 84.6322 5.88677V9.48509C84.6322 9.48509 84.6322 9.63797 84.7854 9.63797H87.6178C88.6895 9.63797 88.9955 9.48509 89.2253 9.48509C89.0722 10.0974 88.9955 11.0926 88.9955 11.5518C88.6128 11.3222 88.3067 11.3222 87.6178 11.1691C87.0052 11.1691 85.3212 11.0159 84.7854 11.0159C84.7854 11.0159 84.6322 11.0159 84.6322 11.1691V12.0112C84.6322 15.0732 84.6322 15.3794 84.7854 15.5323C84.9385 15.6854 85.015 15.6854 85.2445 15.6854C85.7039 15.6854 86.3162 15.8386 87.0052 15.8386C88.5363 15.8386 89.4549 15.6854 90.0672 15.4559C89.8376 16.0681 89.6845 16.987 89.608 17.4461C89.4549 17.4461 89.2253 17.5993 88.5363 17.5993C86.0866 17.5993 84.7087 17.4461 83.637 17.4461H82.0294C82.1826 16.8338 82.2593 14.9965 82.2593 12.4703L82.1826 9.33169ZM98.8735 14.4879C99.418 15.1414 100.725 16.013 102.033 16.013C103.558 16.013 104.211 15.1414 104.211 14.1612C104.211 13.2896 103.884 12.6361 102.577 11.8733L101.706 11.3288C99.7447 10.0215 99.418 8.82316 99.418 7.73387C99.418 5.77303 100.943 4.24823 103.449 4.24823C104.102 4.24823 104.756 4.46598 105.3 4.46598C105.954 4.68374 106.281 4.68374 106.499 4.68374C106.499 4.90175 106.281 5.99105 106.281 6.9716C105.954 6.64457 105.083 5.77303 103.666 5.77303C102.468 5.77303 101.706 6.64457 101.706 7.40711C101.706 8.16964 101.924 8.71442 103.231 9.69497L103.884 9.91246C106.063 11.2198 106.499 12.4181 106.499 13.7254C106.499 14.7057 105.954 16.013 104.865 16.8843C103.993 17.429 102.904 17.7558 102.033 17.7558C100.834 17.7558 99.527 17.429 98.8735 16.8845C98.8735 16.6665 99.0912 15.3592 98.8735 14.4879ZM136.021 13.5071C135.476 14.8144 134.822 16.4485 134.713 17.3198H132.426C132.97 16.3395 133.624 14.8144 134.387 12.8536L137.872 4.68347C138.199 4.02995 138.199 3.81193 138.417 3.81193C138.635 3.81193 138.635 4.02995 138.962 4.68347C139.179 5.22825 140.923 9.04092 142.448 12.5268C143.319 14.3786 144.299 16.5572 144.735 17.211H141.903C141.576 16.3395 140.923 14.5964 140.378 13.3984L136.021 13.5071ZM139.833 12.091L138.199 7.73361L136.565 12.091H139.833ZM154.187 4.33412H155.895C155.677 4.98791 155.628 7.07982 155.628 9.47643V11.7643C155.628 13.9429 156.173 14.7054 156.826 15.3589C157.698 16.0125 158.461 16.0125 159.114 16.0125C159.768 16.0125 160.748 15.7944 161.293 15.1409C162.164 14.2696 162.273 13.1801 162.273 11.0015V9.14966C162.273 6.64405 162.055 4.79222 162.055 4.1387H164.234C164.016 4.79222 164.016 6.75306 164.016 9.14966V11.0015C164.016 12.9623 163.798 15.0322 162.382 16.3392C161.402 17.2108 160.094 17.5375 158.896 17.5375C157.589 17.5375 156.064 17.2108 155.083 16.3392C154.212 15.4679 153.558 14.3784 153.558 11.873V9.04066C153.558 6.5353 153.341 4.8789 153.341 4.33412H154.187ZM62.71 21.6888H71.7514C72.6229 21.6888 73.9302 21.6888 74.3658 21.4708C74.148 22.0155 74.039 23.3226 74.039 24.7389C73.4945 24.4121 72.8407 24.1941 71.4246 24.1941C70.4443 24.1941 68.5923 23.9761 66.7404 23.9761C66.7404 23.9761 66.5227 23.9761 66.5227 24.1941V30.6214C66.5227 30.8392 66.5227 30.8392 66.7404 30.8392H71.2069C72.8407 30.8392 73.4945 30.6214 73.8212 30.5124C73.6032 31.4927 73.4945 33.0178 73.4945 33.7803C72.9497 33.4535 72.5139 33.2358 71.3156 33.2358C70.3353 33.2358 67.2852 33.0178 66.6314 33.0178C66.6314 33.0178 66.4137 33.0178 66.4137 33.2358V34.8699C66.4137 39.9896 66.4137 40.8611 66.6314 40.8611C66.8494 41.0791 66.9584 41.0791 67.2852 41.0791C68.1567 41.2969 68.8103 41.2969 70.1173 41.2969C72.6229 41.2969 74.148 41.0791 75.1286 40.6434C74.8015 41.6236 74.5838 42.931 74.4748 43.5845C74.257 43.8025 73.9302 43.8025 72.8407 43.8025C68.8103 43.8025 66.7404 43.5845 64.9976 43.5845C63.7993 43.5845 63.0368 43.5845 62.492 43.8025C62.71 42.8219 62.8188 39.6628 62.8188 35.3056C62.8188 30.7173 63.1705 26.2952 62.71 21.6888ZM79.5945 43.5847C78.7229 43.5847 77.7427 43.5847 77.3069 43.8025C77.8514 43.258 78.941 41.8417 80.5748 39.4451L84.1697 34.1073L80.9015 28.9873C79.5945 27.0268 78.6139 25.7195 77.7427 24.9569H80.357C81.3373 24.9569 81.9911 24.9569 82.5356 24.7389C83.0804 25.9372 85.0412 29.2054 86.3483 31.1662C87.2198 30.1856 88.2004 28.6606 88.3091 28.2248C89.1806 26.9178 89.9432 25.3927 90.1612 24.7392H91.6863C92.6665 24.7392 93.8649 24.5212 94.1916 24.5212C93.5381 25.1747 92.3398 26.6997 91.3592 28.0071L87.7646 33.018C88.4181 34.2163 89.7254 36.2862 90.7057 37.7022C92.5575 40.3166 94.1916 42.4954 94.8451 43.149H92.6665C91.795 43.149 90.1612 43.149 89.7254 43.3667C89.5074 43.04 88.4181 40.7524 88.2004 40.2078C87.2198 38.3558 86.6753 37.5932 85.5857 35.7414L82.7536 40.2078C81.8821 41.5149 81.2286 42.8222 81.1195 43.149C80.7928 43.5847 80.466 43.5847 79.5945 43.5847ZM99.2021 41.2969C96.6967 39.1183 96.0432 36.2859 96.0432 33.9983C96.0432 32.1465 96.5877 29.3141 98.9843 27.2445C100.945 25.6104 103.451 24.6299 107.154 24.6299C110.64 24.6299 112.601 25.2837 113.799 25.6104C113.581 26.264 113.255 27.789 113.255 29.0964C112.056 27.898 109.987 26.9175 106.828 26.9175C104.54 26.9175 103.015 27.5713 102.034 28.4426C100.4 29.7499 99.8559 31.7107 99.8559 33.7806C99.8559 37.811 102.361 41.6236 108.026 41.6236C110.205 41.6236 112.165 41.2969 113.69 40.3166C113.473 40.9701 113.146 42.6042 113.037 43.4757C112.056 43.8025 109.878 44.347 107.59 44.347C104.54 43.9115 101.49 43.2577 99.2021 41.2969ZM117.74 32.1462C117.74 28.1158 117.523 25.8282 117.414 25.0657H125.693C126.564 25.0657 127.654 25.0657 128.198 24.8477C127.98 25.3924 127.98 26.4817 127.98 27.789C127.435 27.571 127 27.462 125.475 27.2443C124.603 27.2443 122.969 27.0265 121.444 27.0265C121.444 27.0265 121.226 27.0265 121.226 27.2443V32.3642C121.226 32.3642 121.226 32.582 121.444 32.582H125.475C127 32.582 127.435 32.3642 127.762 32.3642C127.545 33.2358 127.435 34.6518 127.435 35.3054C126.891 34.9786 126.455 34.9786 125.475 34.7608C124.603 34.7608 122.207 34.5428 121.444 34.5428C121.444 34.5428 121.226 34.5428 121.226 34.7608V35.9591C121.226 40.3163 121.226 40.7521 121.444 40.9701C121.662 41.1879 121.771 41.1879 122.098 41.1879C122.751 41.1879 123.623 41.4056 124.603 41.4056C126.782 41.4056 128.089 41.1879 128.961 40.8611C128.634 41.7327 128.416 43.0397 128.307 43.6935C128.089 43.6935 127.762 43.9112 126.782 43.9112C123.296 43.9112 121.335 43.6935 119.81 43.6935H117.523C117.74 42.8219 117.849 40.2076 117.849 36.6127L117.74 32.1462ZM116.067 9.33169C116.067 6.49932 115.914 4.89177 115.838 4.35592H121.655C122.268 4.35592 123.033 4.35592 123.416 4.20279C123.263 4.5855 123.263 5.35092 123.263 6.26974C122.88 6.11661 122.574 6.03991 121.502 5.88677C120.89 5.88677 119.742 5.73389 118.67 5.73389C118.67 5.73389 118.517 5.73389 118.517 5.88677V9.48509C118.517 9.48509 118.517 9.63797 118.67 9.63797H121.502C122.574 9.63797 122.88 9.48509 123.11 9.48509C122.957 10.0974 122.88 11.0926 122.88 11.5518C122.497 11.3222 122.191 11.3222 121.502 11.1691C120.89 11.1691 119.206 11.0159 118.67 11.0159C118.67 11.0159 118.517 11.0159 118.517 11.1691V12.0112C118.517 15.0732 118.517 15.3794 118.67 15.5323C118.823 15.6854 118.899 15.6854 119.129 15.6854C119.588 15.6854 120.201 15.8386 120.89 15.8386C122.421 15.8386 123.339 15.6854 123.952 15.4559C123.722 16.0681 123.569 16.987 123.493 17.4461C123.339 17.4461 123.11 17.5993 122.421 17.5993C119.971 17.5993 118.593 17.4461 117.522 17.4461H115.914C116.067 16.8338 116.144 14.9965 116.144 12.4703L116.067 9.33169ZM133.174 32.1462C133.174 28.6603 132.973 25.8282 132.864 25.0657H134.498C135.478 25.0657 136.458 25.0657 136.785 24.8477C136.567 25.8282 136.458 28.4426 136.458 31.8195V35.9591C136.458 40.4253 136.458 40.9701 136.676 40.9701C136.894 40.9701 137.003 41.1879 137.33 41.1879C137.875 41.1879 138.637 41.4056 139.835 41.4056C142.123 41.4056 143.648 41.1879 144.52 40.7521C144.193 41.4056 143.866 42.931 143.648 43.5845H141.796C137.984 43.5845 136.676 43.3665 134.715 43.3665H132.755C132.973 42.4952 133.082 39.8806 133.082 36.2859L133.174 32.1462ZM147.788 32.1772C147.788 28.6913 147.679 25.8282 147.57 25.0657H149.204C150.184 25.0657 151.165 25.0657 151.491 24.8477C151.274 25.8282 151.165 28.4426 151.165 31.8195V35.9591C151.165 40.4253 151.165 40.9701 151.382 40.9701C151.6 40.9701 151.709 41.1879 152.036 41.1879C152.581 41.1879 153.343 41.4056 154.542 41.4056C156.829 41.4056 158.354 41.1879 159.226 40.7521C158.899 41.4056 158.572 42.931 158.354 43.5845H156.502C152.69 43.5845 151.382 43.3665 149.422 43.3665H147.461C147.679 42.4952 147.788 39.8806 147.788 36.2859V32.1772ZM162.494 32.1462C162.494 28.1158 162.276 25.8282 162.167 25.0657H170.446C171.318 25.0657 172.407 25.0657 172.951 24.8477C172.734 25.3924 172.734 26.4817 172.734 27.789C172.189 27.571 171.753 27.462 170.228 27.2443C169.357 27.2443 167.723 27.0265 166.198 27.0265C166.198 27.0265 165.98 27.0265 165.98 27.2443V32.3642C165.98 32.3642 165.98 32.582 166.198 32.582H170.228C171.753 32.582 172.189 32.3642 172.516 32.3642C172.298 33.2358 172.189 34.6518 172.189 35.3054C171.644 34.9786 171.209 34.9786 170.228 34.7608C169.357 34.7608 166.96 34.5428 166.198 34.5428C166.198 34.5428 165.98 34.5428 165.98 34.7608V35.9591C165.98 40.3163 165.98 40.7521 166.198 40.9701C166.415 41.1879 166.524 41.1879 166.851 41.1879C167.505 41.1879 168.376 41.4056 169.357 41.4056C171.535 41.4056 172.843 41.1879 173.714 40.8611C173.387 41.7327 173.169 43.0397 173.06 43.6935C172.843 43.6935 172.516 43.9112 171.535 43.9112C168.049 43.9112 166.089 43.6935 164.563 43.6935H162.276C162.494 42.8219 162.603 40.2076 162.603 36.6127L162.494 32.1462ZM179.597 43.5845C179.27 43.5845 177.963 43.5845 177.636 43.8022C177.854 41.5146 177.963 30.5121 177.963 26.2637C177.963 24.9567 177.963 24.9567 178.181 24.9567C178.399 24.9567 178.508 25.1747 179.052 25.6102C181.993 28.2245 188.856 35.1964 192.015 37.593C192.015 35.3054 191.797 28.6603 191.689 25.2834C192.015 25.2834 192.669 25.5014 193.214 25.5014C194.085 25.5014 195.066 25.5014 195.175 25.2834C194.957 26.8085 194.63 33.5625 194.63 39.009V43.0397C194.63 44.238 194.63 44.347 194.303 44.347C194.085 44.347 193.431 44.0202 191.689 42.1682C189.074 39.8806 183.41 33.998 180.795 31.6017C180.795 36.3947 181.013 42.0594 181.34 43.9112C180.686 43.5845 180.033 43.5845 179.597 43.5845ZM202.799 41.2969C200.294 39.1183 199.641 36.2859 199.641 33.9983C199.641 32.1465 200.185 29.3141 202.582 27.2445C204.542 25.6104 207.048 24.6299 210.752 24.6299C214.238 24.6299 216.198 25.2837 217.397 25.6104C217.179 26.264 216.852 27.789 216.852 29.0964C215.654 27.898 213.584 26.9175 210.425 26.9175C208.137 26.9175 206.612 27.5713 205.632 28.4426C203.998 29.7499 203.453 31.7107 203.453 33.7806C203.453 37.811 205.959 41.6236 211.623 41.6236C213.802 41.6236 215.763 41.2969 217.288 40.3166C217.07 40.9701 216.743 42.6042 216.634 43.4757C215.654 43.8025 213.475 44.347 211.188 44.347C208.028 43.9115 205.087 43.2577 202.799 41.2969ZM221.495 32.2523C221.495 28.2219 221.277 25.9343 221.168 25.1715H229.448C230.319 25.1715 231.408 25.1715 231.953 24.9538C231.735 25.4986 231.735 26.5878 231.735 27.8949C231.19 27.6771 230.755 27.5681 229.23 27.3504C228.358 27.3504 226.724 27.1324 225.199 27.1324C225.199 27.1324 224.981 27.1324 224.981 27.3504V32.4704C224.981 32.4704 224.981 32.6881 225.199 32.6881H229.23C230.755 32.6881 231.19 32.4704 231.517 32.4704C231.299 33.3416 231.19 34.758 231.19 35.4115C230.646 35.0847 230.21 35.0847 229.23 34.8667C228.358 34.8667 225.962 34.6489 225.199 34.6489C225.199 34.6489 224.981 34.6489 224.981 34.8667V36.065C224.981 40.4225 224.981 40.8582 225.199 41.076C225.417 41.294 225.526 41.294 225.853 41.294C226.506 41.294 227.378 41.5117 228.358 41.5117C230.537 41.5117 231.844 41.294 232.715 40.9672C232.389 41.8385 232.171 43.1458 232.062 43.7993C231.844 43.7993 231.517 44.0174 230.537 44.0174C227.051 44.0174 225.09 43.7993 223.565 43.7993H221.277C221.495 42.9281 221.604 40.3134 221.604 36.7188L221.495 32.2523ZM89.1783 1.30632C88.8513 0.979555 88.1977 0.32603 87.98 -0.000732422L84.9298 2.61363L85.5834 3.48517C86.5637 2.83138 88.6335 1.52433 89.1783 1.30632Z" fill="white"/>
</g>
</g>
<defs>
<clipPath id="clip0_153_412">
<rect width="234.828" height="56.9995" fill="white"/>
</clipPath>
</defs>
</svg>
