<svg width="894" height="217" viewBox="0 0 894 217" fill="none" xmlns="http://www.w3.org/2000/svg">
<g clip-path="url(#clip0_74_124)">
<path d="M894.302 198.604H676.02V216.638H894.302V198.604Z" fill="#E42328"/>
<path d="M676.021 198.604H454.328V216.638H676.021V198.604Z" fill="white"/>
<path d="M454.328 198.604H236.045V216.638H454.328V198.604Z" fill="#253784"/>
<path d="M239.5 35.6611C239.5 26.1231 239.569 19.0731 238.325 16.5841H252.01C256.987 16.5841 261.549 17.4141 264.452 19.0731C267.77 21.1461 270.673 24.8791 270.673 29.8551C270.673 35.6611 267.355 39.8091 262.378 43.5411C266.111 49.3471 271.087 55.5681 274.82 60.5441C278.138 63.8621 279.797 65.5211 281.041 66.3501C279.797 67.1801 277.308 67.1801 275.235 67.1801C271.502 67.1801 269.429 65.9361 266.94 63.8621C263.208 60.1301 257.402 51.4211 254.913 47.2731C254.913 46.4441 254.084 46.4441 254.084 46.4441H246.619V49.7621C246.619 58.0561 247.448 64.2771 247.448 67.5951H237.91C241.006 58.3081 239.5 35.6611 239.5 35.6611ZM247.863 40.2231C247.863 40.6381 247.863 40.6381 247.863 40.2231C249.107 41.4671 251.596 41.4671 254.913 41.4671C256.987 41.4671 258.231 41.4671 258.646 40.6371C260.719 38.5641 263.208 36.0761 263.208 31.9291C263.208 24.8791 258.231 21.1461 252.425 21.1461H247.863V40.2231ZM312.874 35.5261C312.874 24.7431 312.291 18.6231 312 16.5831H334.149C336.48 16.5831 339.394 16.5831 340.851 16.0001C340.269 17.4571 340.269 20.3711 340.269 23.8691C338.811 23.2861 337.646 22.9941 333.566 22.4111C331.234 22.4111 326.863 21.8291 322.783 21.8291C322.783 21.8291 322.2 21.8291 322.2 22.4111V36.1101C322.2 36.1101 322.2 36.6921 322.783 36.6921H333.566C337.646 36.6921 338.811 36.1101 339.686 36.1101C339.103 38.4411 338.811 42.2301 338.811 43.9781C337.354 43.1041 336.189 43.1041 333.566 42.5211C331.234 42.5211 324.823 41.9381 322.783 41.9381C322.783 41.9381 322.2 41.9381 322.2 42.5211V45.7271C322.2 57.3841 322.2 58.5501 322.783 59.1321C323.366 59.7151 323.657 59.7151 324.531 59.7151C326.28 59.7151 328.611 60.2981 331.234 60.2981C337.063 60.2981 340.56 59.7151 342.891 58.8411C342.017 61.1721 341.434 64.6701 341.143 66.4181C340.56 66.4181 339.686 67.0011 337.063 67.0011C327.737 67.0011 322.491 66.4181 318.411 66.4181H312.291C312.874 64.0871 313.166 57.0921 313.166 47.4751L312.874 35.5261ZM376.417 55.1561C378.49 57.6441 383.467 60.9621 388.444 60.9621C394.25 60.9621 396.738 57.6441 396.738 53.9121C396.738 50.5941 395.494 48.1061 390.517 45.2021L387.199 43.1291C379.734 38.1521 378.49 33.5901 378.49 29.4431C378.49 21.9781 384.296 16.1731 393.835 16.1731C396.323 16.1731 398.812 17.0021 400.885 17.0021C403.373 17.8311 404.618 17.8311 405.447 17.8311C405.447 18.6611 404.618 22.8081 404.618 26.5411C403.373 25.2961 400.056 21.9781 394.664 21.9781C390.102 21.9781 387.199 25.2961 387.199 28.1991C387.199 31.1021 388.029 33.1761 393.006 36.9091L395.494 37.7371C403.788 42.7141 405.447 47.2761 405.447 52.2531C405.447 55.9851 403.373 60.9621 399.226 64.2791C395.909 66.3531 391.761 67.5971 388.444 67.5971C383.882 67.5971 378.905 66.3531 376.417 64.2801C376.417 63.4501 377.246 58.4731 376.417 55.1561ZM517.838 51.4221C515.764 56.3991 513.276 62.6201 512.861 65.9371H504.152C506.225 62.2051 508.714 56.3991 511.617 48.9341L524.888 17.8301C526.132 15.3421 526.132 14.5121 526.961 14.5121C527.791 14.5121 527.791 15.3421 529.035 17.8301C529.864 19.9041 536.5 34.4191 542.306 47.6901C545.624 54.7401 549.356 63.0341 551.015 65.5231H540.232C538.988 62.2051 536.5 55.5691 534.426 51.0081L517.838 51.4221ZM532.353 46.0311L526.132 29.4421L519.911 46.0311H532.353ZM587 16.5001H593.5C592.671 18.9891 592.485 26.9531 592.485 36.0771V44.7871C592.485 53.0811 594.559 55.9841 597.047 58.4721C600.365 60.9601 603.268 60.9601 605.756 60.9601C608.244 60.9601 611.977 60.1301 614.05 57.6421C617.368 54.3251 617.783 50.1771 617.783 41.8831V34.8331C617.783 25.2941 616.953 18.2441 616.953 15.7561H625.248C624.418 18.2441 624.418 25.7091 624.418 34.8331V41.8831C624.418 49.3481 623.589 57.2281 618.198 62.2041C614.465 65.5221 609.488 66.7661 604.927 66.7661C599.95 66.7661 594.144 65.5221 590.411 62.2041C587.094 58.8871 584.605 54.7391 584.605 45.2011V34.4181C584.605 24.8801 583.776 18.5741 583.776 16.5001H587ZM238.741 82.5701H273.162C276.48 82.5701 281.457 82.5701 283.115 81.7401C282.286 83.8141 281.871 88.7901 281.871 94.1821C279.798 92.9381 277.309 92.1081 271.918 92.1081C268.186 92.1081 261.135 91.2781 254.085 91.2781C254.085 91.2781 253.256 91.2781 253.256 92.1081V116.577C253.256 117.406 253.256 117.406 254.085 117.406H271.089C277.309 117.406 279.798 116.577 281.042 116.162C280.212 119.894 279.798 125.7 279.798 128.603C277.724 127.359 276.065 126.53 271.503 126.53C267.771 126.53 256.159 125.7 253.67 125.7C253.67 125.7 252.841 125.7 252.841 126.53V132.751C252.841 152.242 252.841 155.56 253.67 155.56C254.5 156.39 254.915 156.39 256.159 156.39C259.477 157.219 261.965 157.219 266.941 157.219C276.48 157.219 282.286 156.39 286.019 154.731C284.774 158.463 283.945 163.44 283.53 165.928C282.701 166.758 281.457 166.758 277.309 166.758C261.965 166.758 254.085 165.928 247.45 165.928C242.888 165.928 239.985 165.928 237.911 166.758C238.741 163.025 239.155 150.998 239.155 134.41C239.155 116.942 240.494 100.107 238.741 82.5701ZM303.021 165.929C299.703 165.929 295.971 165.929 294.312 166.758C296.385 164.685 300.533 159.293 306.753 150.169L320.439 129.848L307.997 110.356C303.021 102.892 299.288 97.9151 295.971 95.0121H305.924C309.656 95.0121 312.145 95.0121 314.218 94.1821C316.292 98.7441 323.757 111.186 328.733 118.651C332.051 114.918 335.784 109.112 336.198 107.453C339.516 102.477 342.419 96.6711 343.249 94.1831H349.055C352.787 94.1831 357.349 93.3531 358.593 93.3531C356.105 95.8411 351.543 101.647 347.81 106.624L334.125 125.701C336.613 130.263 341.59 138.143 345.322 143.534C352.372 153.487 358.593 161.782 361.081 164.27H352.787C349.469 164.27 343.249 164.27 341.59 165.099C340.76 163.855 336.613 155.146 335.784 153.073C332.051 146.022 329.978 143.119 325.83 136.069L315.048 153.073C311.73 158.049 309.242 163.026 308.827 164.27C307.583 165.929 306.339 165.929 303.021 165.929ZM377.668 157.219C368.13 148.925 365.642 138.142 365.642 129.433C365.642 122.383 367.715 111.6 376.839 103.721C384.304 97.5001 393.842 93.7671 407.943 93.7671C421.214 93.7671 428.679 96.2561 433.241 97.5001C432.411 99.9881 431.167 105.794 431.167 110.771C426.605 106.209 418.726 102.476 406.699 102.476C397.99 102.476 392.184 104.965 388.451 108.282C382.23 113.259 380.157 120.724 380.157 128.604C380.157 143.948 389.695 158.463 411.261 158.463C419.555 158.463 427.02 157.219 432.826 153.487C431.997 155.975 430.752 162.196 430.338 165.514C426.605 166.758 418.311 168.831 409.602 168.831C397.99 167.173 386.378 164.684 377.668 157.219ZM448.244 122.382C448.244 107.038 447.415 98.3291 447 95.4261H478.519C481.836 95.4261 485.984 95.4261 488.057 94.5961C487.228 96.6701 487.228 100.817 487.228 105.794C485.154 104.964 483.495 104.549 477.689 103.72C474.371 103.72 468.151 102.891 462.345 102.891C462.345 102.891 461.515 102.891 461.515 103.72V123.212C461.515 123.212 461.515 124.041 462.345 124.041H477.689C483.495 124.041 485.154 123.212 486.398 123.212C485.569 126.53 485.154 131.921 485.154 134.409C483.081 133.165 481.422 133.165 477.689 132.336C474.371 132.336 465.248 131.506 462.345 131.506C462.345 131.506 461.515 131.506 461.515 132.336V136.898C461.515 153.486 461.515 155.145 462.345 155.975C463.174 156.804 463.589 156.804 464.833 156.804C467.321 156.804 470.639 157.633 474.371 157.633C482.666 157.633 487.642 156.804 490.96 155.56C489.716 158.878 488.887 163.854 488.472 166.343C487.642 166.343 486.398 167.172 482.666 167.172C469.395 167.172 461.93 166.343 456.124 166.343H447.415C448.244 163.025 448.659 153.072 448.659 139.386L448.244 122.382ZM441.874 35.5261C441.874 24.7431 441.291 18.6231 441 16.5831H463.149C465.48 16.5831 468.394 16.5831 469.851 16.0001C469.269 17.4571 469.269 20.3711 469.269 23.8691C467.811 23.2861 466.646 22.9941 462.566 22.4111C460.234 22.4111 455.863 21.8291 451.783 21.8291C451.783 21.8291 451.2 21.8291 451.2 22.4111V36.1101C451.2 36.1101 451.2 36.6921 451.783 36.6921H462.566C466.646 36.6921 467.811 36.1101 468.686 36.1101C468.103 38.4411 467.811 42.2301 467.811 43.9781C466.354 43.1041 465.189 43.1041 462.566 42.5211C460.234 42.5211 453.823 41.9381 451.783 41.9381C451.783 41.9381 451.2 41.9381 451.2 42.5211V45.7271C451.2 57.3841 451.2 58.5501 451.783 59.1321C452.366 59.7151 452.657 59.7151 453.531 59.7151C455.28 59.7151 457.611 60.2981 460.234 60.2981C466.063 60.2981 469.56 59.7151 471.891 58.8411C471.017 61.1721 470.434 64.6701 470.143 66.4181C469.56 66.4181 468.686 67.0011 466.063 67.0011C456.737 67.0011 451.491 66.4181 447.411 66.4181H441.291C441.874 64.0871 442.166 57.0921 442.166 47.4751L441.874 35.5261ZM507 122.382C507 109.111 506.234 98.3291 505.819 95.4261H512.04C515.773 95.4261 519.505 95.4261 520.749 94.5961C519.92 98.3291 519.505 108.282 519.505 121.138V136.898C519.505 153.901 519.505 155.975 520.334 155.975C521.164 155.975 521.579 156.804 522.823 156.804C524.896 156.804 527.799 157.633 532.361 157.633C541.07 157.633 546.876 156.804 550.194 155.145C548.95 157.633 547.706 163.44 546.876 165.928H539.826C525.311 165.928 520.334 165.098 512.869 165.098H505.405C506.234 161.781 506.649 151.827 506.649 138.142L507 122.382ZM562.636 122.5C562.636 109.229 562.221 98.3291 561.806 95.4261H568.027C571.759 95.4261 575.492 95.4261 576.736 94.5961C575.907 98.3291 575.492 108.282 575.492 121.138V136.898C575.492 153.901 575.492 155.975 576.321 155.975C577.151 155.975 577.565 156.804 578.81 156.804C580.883 156.804 583.786 157.633 588.348 157.633C597.057 157.633 602.863 156.804 606.181 155.145C604.937 157.633 603.693 163.44 602.863 165.928H595.813C581.298 165.928 576.321 165.098 568.856 165.098H561.391C562.221 161.781 562.636 151.827 562.636 138.142V122.5ZM618.622 122.382C618.622 107.038 617.793 98.3291 617.378 95.4261H648.897C652.215 95.4261 656.362 95.4261 658.435 94.5961C657.606 96.6701 657.606 100.817 657.606 105.794C655.532 104.964 653.873 104.549 648.067 103.72C644.75 103.72 638.529 102.891 632.723 102.891C632.723 102.891 631.893 102.891 631.893 103.72V123.212C631.893 123.212 631.893 124.041 632.723 124.041H648.067C653.873 124.041 655.532 123.212 656.776 123.212C655.947 126.53 655.532 131.921 655.532 134.409C653.459 133.165 651.8 133.165 648.067 132.336C644.75 132.336 635.626 131.506 632.723 131.506C632.723 131.506 631.893 131.506 631.893 132.336V136.898C631.893 153.486 631.893 155.145 632.723 155.975C633.552 156.804 633.967 156.804 635.211 156.804C637.699 156.804 641.017 157.633 644.75 157.633C653.044 157.633 658.021 156.804 661.338 155.56C660.094 158.878 659.265 163.854 658.85 166.343C658.021 166.343 656.776 167.172 653.044 167.172C639.773 167.172 632.308 166.343 626.502 166.343H617.793C618.622 163.025 619.037 153.072 619.037 139.386L618.622 122.382ZM683.735 165.928C682.491 165.928 677.514 165.928 676.27 166.757C677.099 158.048 677.514 116.161 677.514 99.9871C677.514 95.0111 677.514 95.0111 678.343 95.0111C679.173 95.0111 679.588 95.8411 681.661 97.4991C692.859 107.452 718.986 133.994 731.013 143.118C731.013 134.409 730.183 109.111 729.769 96.2551C731.013 96.2551 733.501 97.0851 735.575 97.0851C738.892 97.0851 742.625 97.0851 743.04 96.2551C742.21 102.061 740.966 127.774 740.966 148.509V163.854C740.966 168.416 740.966 168.831 739.722 168.831C738.892 168.831 736.404 167.587 729.769 160.536C719.815 151.827 698.25 129.432 688.297 120.309C688.297 138.556 689.126 160.122 690.37 167.172C687.882 165.928 685.394 165.928 683.735 165.928ZM772.068 157.219C762.53 148.925 760.042 138.142 760.042 129.433C760.042 122.383 762.115 111.6 771.239 103.721C778.704 97.5001 788.242 93.7671 802.343 93.7671C815.614 93.7671 823.079 96.2561 827.641 97.5001C826.811 99.9881 825.567 105.794 825.567 110.771C821.005 106.209 813.126 102.476 801.099 102.476C792.39 102.476 786.583 104.965 782.851 108.282C776.63 113.259 774.557 120.724 774.557 128.604C774.557 143.948 784.095 158.463 805.661 158.463C813.955 158.463 821.42 157.219 827.226 153.487C826.397 155.975 825.152 162.196 824.738 165.514C821.005 166.758 812.711 168.831 804.002 168.831C791.975 167.173 780.777 164.684 772.068 157.219ZM843.244 122.786C843.244 107.442 842.415 98.7331 842 95.8291H873.519C876.836 95.8291 880.984 95.8291 883.057 95.0001C882.228 97.0741 882.228 101.221 882.228 106.197C880.154 105.368 878.495 104.953 872.689 104.124C869.371 104.124 863.151 103.294 857.345 103.294C857.345 103.294 856.515 103.294 856.515 104.124V123.616C856.515 123.616 856.515 124.445 857.345 124.445H872.689C878.495 124.445 880.154 123.616 881.398 123.616C880.569 126.933 880.154 132.325 880.154 134.813C878.081 133.569 876.422 133.569 872.689 132.739C869.371 132.739 860.248 131.91 857.345 131.91C857.345 131.91 856.515 131.91 856.515 132.739V137.301C856.515 153.89 856.515 155.549 857.345 156.378C858.174 157.208 858.589 157.208 859.833 157.208C862.321 157.208 865.639 158.037 869.371 158.037C877.666 158.037 882.642 157.208 885.96 155.964C884.716 159.281 883.887 164.258 883.472 166.746C882.642 166.746 881.398 167.576 877.666 167.576C864.395 167.576 856.93 166.746 851.124 166.746H842.415C843.244 163.429 843.659 153.475 843.659 139.79L843.244 122.786ZM339.507 4.97307C338.262 3.72907 335.774 1.24107 334.945 -0.00292969L323.333 9.95007L325.821 13.2681C329.553 10.7791 337.433 5.80307 339.507 4.97307Z" fill="#262B36"/>
<path fill-rule="evenodd" clip-rule="evenodd" d="M96.2781 13.2568C43.4806 13.2568 1.10156 57.1145 1.10156 110.688C1.10156 164.261 43.4806 208.119 96.2781 208.119C149.077 208.119 191.455 164.261 191.455 110.688C191.455 57.1145 149.077 13.2568 96.2781 13.2568ZM86.8818 198.083C87.7526 198.18 88.6274 198.265 89.5059 198.335L120.283 143.227H114.606C114.606 143.437 91.2661 185.912 91.2661 185.912L84.3271 144.489C84.3271 144.278 84.3271 143.648 85.1681 143.648H90.8451L100.518 93.3928C125.54 90.0288 120.283 119.046 101.359 116.943L101.569 117.784C101.757 117.784 102.095 117.877 102.549 118.003C103.617 118.299 105.328 118.773 107.246 118.625C116.498 118.205 122.596 110.425 122.386 102.645C122.176 95.2848 116.498 87.7158 101.149 88.5568H95.8911C95.6811 88.5568 94.8411 88.1358 95.0511 87.2948L96.3121 84.1408C96.3121 84.1408 96.3121 83.9308 95.8921 83.9308H75.0751L78.6501 63.5338C78.6501 63.3238 78.8601 62.6938 79.7011 62.6938H97.7851L98.6251 59.3288H81.1721C80.1221 59.3288 80.1221 58.4878 80.1221 58.0678L83.6961 37.8818H103.882L104.723 34.5168C104.723 34.5168 104.933 34.0968 104.513 34.0968H77.8081C77.5981 34.0968 77.3881 34.3068 77.3881 34.5168C76.7571 38.7228 68.5571 87.7158 68.5571 87.7158C68.1361 88.7668 69.3981 88.7668 69.3981 88.7668H94.4201C94.4201 88.7668 95.4711 88.9768 95.2611 90.0288V90.2388L85.3781 142.596C85.3226 142.652 85.2817 142.737 85.2361 142.832C85.1093 143.096 84.9457 143.437 84.3271 143.437H78.8601C78.4401 143.437 78.4401 143.648 78.4401 143.858C78.4401 144.056 85.5363 189.82 86.8818 198.083Z" fill="#C11628"/>
</g>
<defs>
<clipPath id="clip0_74_124">
<rect width="894" height="217" fill="white"/>
</clipPath>
</defs>
</svg>
