<svg width="262" height="80" viewBox="0 0 262 80" fill="none" xmlns="http://www.w3.org/2000/svg">
<rect width="262" height="80" fill="#C11627"/>
<mask id="mask0_81_79" style="mask-type:luminance" maskUnits="userSpaceOnUse" x="13" y="10" width="235" height="57">
<path d="M13 10H247.828V66.9995H13V10Z" fill="white"/>
</mask>
<g mask="url(#mask0_81_79)">
<path d="M247.906 62.1674H190.57V66.9044H247.906V62.1674Z" fill="#E42328"/>
<path d="M190.57 62.1674H132.338V66.9044H190.57V62.1674Z" fill="white"/>
<path d="M132.338 62.1674H75.001V66.9044H132.338V62.1674Z" fill="#253784"/>
<path d="M38.2883 63.4174C51.436 63.4174 62.039 52.488 62.039 39.0747C62.039 25.6612 51.436 14.7317 38.2883 14.7317C25.1408 14.7317 14.5376 25.6612 14.5376 39.0747C14.5376 52.488 25.1408 63.4174 38.2883 63.4174Z" stroke="white" stroke-width="2.49879"/>
<path d="M38.5734 15.2558C25.5386 15.2558 14.9893 25.805 14.9893 38.8397C14.9893 50.9354 24.1026 60.9324 35.8671 62.3133C35.7014 61.3742 33.6026 47.8425 33.6026 47.7873C33.6026 47.7322 33.6026 47.6768 33.713 47.6768H35.149C35.3699 47.6768 35.3699 47.5113 35.425 47.4558L38.021 33.7032V33.648C38.0762 33.3717 37.8001 33.3165 37.8001 33.3165H31.2276C31.2276 33.3165 30.8961 33.3165 31.0067 33.0405C31.0067 33.0405 33.1606 20.1715 33.3263 19.0667C33.3263 19.0115 33.3815 18.9563 33.4366 18.9563H40.4512C40.5616 18.9563 40.5064 19.0667 40.5064 19.0667L40.2855 19.9505H34.9832L34.0444 25.2528C34.0444 25.3631 34.0444 25.584 34.3202 25.584H38.9046L38.684 26.4679H33.9339C33.713 26.4679 33.6578 26.6334 33.6578 26.6886L32.7187 32.0463H38.1868C38.2971 32.0463 38.2971 32.1014 38.2971 32.1014L37.9659 32.9299C37.9107 33.1508 38.1313 33.2614 38.1865 33.2614H39.5676C43.5994 33.0405 45.0908 35.0286 45.146 36.9619C45.2011 39.0055 43.5994 41.049 41.1691 41.1594C40.4512 41.2148 39.8437 40.9385 39.6779 40.9385L39.6228 40.7176C44.5936 41.27 45.9744 33.648 39.4019 34.5317L36.8611 47.7322H35.3699C35.149 47.7322 35.149 47.8977 35.149 47.9531L36.9716 58.8337C36.9716 58.8337 43.1024 47.6768 43.1024 47.6216H44.5936L36.4192 62.2581C37.082 62.3133 37.8001 62.3685 38.4628 62.3685C51.4976 62.3685 62.047 51.8193 62.047 38.7846C62.1573 25.805 51.6082 15.2558 38.5734 15.2558ZM75.9086 19.3672C75.9086 16.8618 75.9268 15.01 75.6 14.3562H79.1947C80.502 14.3562 81.7003 14.5742 82.4628 15.01C83.3343 15.5545 84.0969 16.535 84.0969 17.8421C84.0969 19.3672 83.2253 20.4567 81.918 21.437C82.8986 22.9621 84.2056 24.5961 85.1862 25.9032C86.0577 26.7747 86.4935 27.2105 86.8202 27.4283C86.4935 27.6463 85.8397 27.6463 85.2952 27.6463C84.3146 27.6463 83.7701 27.3195 83.1163 26.7747C82.136 25.7944 80.611 23.5068 79.9572 22.4173C79.9572 22.1995 79.7394 22.1995 79.7394 22.1995H77.7786V23.0711C77.7786 25.2497 77.9963 26.8837 77.9963 27.7553H75.491C76.3042 25.3159 75.9086 19.3672 75.9086 19.3672ZM78.1054 20.5655C78.1054 20.6745 78.1054 20.6745 78.1054 20.5655C78.4321 20.8922 79.0859 20.8922 79.9572 20.8922C80.502 20.8922 80.8287 20.8922 80.9377 20.6742C81.4823 20.1297 82.136 19.4762 82.136 18.3869C82.136 16.535 80.8287 15.5545 79.3037 15.5545H78.1054V20.5655ZM95.1818 19.3317C95.1818 16.4993 95.0287 14.8918 94.9523 14.3559H100.77C101.382 14.3559 102.148 14.3559 102.531 14.2028C102.378 14.5855 102.378 15.3509 102.378 16.2697C101.995 16.1166 101.689 16.0399 100.617 15.8868C100.004 15.8868 98.8563 15.7339 97.7846 15.7339C97.7846 15.7339 97.6315 15.7339 97.6315 15.8868V19.4851C97.6315 19.4851 97.6315 19.638 97.7846 19.638H100.617C101.689 19.638 101.995 19.4851 102.225 19.4851C102.071 20.0974 101.995 21.0926 101.995 21.5518C101.612 21.3222 101.306 21.3222 100.617 21.1691C100.004 21.1691 98.3205 21.0159 97.7846 21.0159C97.7846 21.0159 97.6315 21.0159 97.6315 21.1691V22.0112C97.6315 25.0732 97.6315 25.3794 97.7846 25.5323C97.9378 25.6854 98.0142 25.6854 98.2438 25.6854C98.7032 25.6854 99.3155 25.8386 100.004 25.8386C101.536 25.8386 102.454 25.6854 103.066 25.4559C102.837 26.0681 102.684 26.987 102.607 27.4461C102.454 27.4461 102.225 27.5993 101.536 27.5993C99.0859 27.5993 97.708 27.4461 96.6363 27.4461H95.0287C95.1818 26.8338 95.2585 24.9965 95.2585 22.4703L95.1818 19.3317ZM111.873 24.4879C112.417 25.1414 113.725 26.013 115.032 26.013C116.557 26.013 117.21 25.1414 117.21 24.1612C117.21 23.2896 116.884 22.6361 115.576 21.8733L114.705 21.3288C112.744 20.0215 112.417 18.8232 112.417 17.7339C112.417 15.773 113.942 14.2482 116.448 14.2482C117.101 14.2482 117.755 14.466 118.3 14.466C118.953 14.6837 119.28 14.6837 119.498 14.6837C119.498 14.9018 119.28 15.991 119.28 16.9716C118.953 16.6446 118.082 15.773 116.666 15.773C115.467 15.773 114.705 16.6446 114.705 17.4071C114.705 18.1696 114.923 18.7144 116.23 19.695L116.884 19.9125C119.062 21.2198 119.498 22.4181 119.498 23.7254C119.498 24.7057 118.953 26.013 117.864 26.8843C116.993 27.429 115.903 27.7558 115.032 27.7558C113.834 27.7558 112.526 27.429 111.873 26.8845C111.873 26.6665 112.09 25.3592 111.873 24.4879ZM149.02 23.5071C148.475 24.8144 147.822 26.4485 147.713 27.3198H145.425C145.969 26.3395 146.623 24.8144 147.386 22.8536L150.872 14.6835C151.198 14.0299 151.198 13.8119 151.416 13.8119C151.634 13.8119 151.634 14.0299 151.961 14.6835C152.179 15.2283 153.922 19.0409 155.447 22.5268C156.318 24.3786 157.299 26.5572 157.735 27.211H154.902C154.575 26.3395 153.922 24.5964 153.377 23.3984L149.02 23.5071ZM152.833 22.091L151.198 17.7336L149.564 22.091H152.833ZM167.187 14.3341H168.894C168.676 14.9879 168.627 17.0798 168.627 19.4764V21.7643C168.627 23.9429 169.172 24.7054 169.826 25.3589C170.697 26.0125 171.46 26.0125 172.113 26.0125C172.767 26.0125 173.747 25.7944 174.292 25.1409C175.163 24.2696 175.273 23.1801 175.273 21.0015V19.1497C175.273 16.644 175.054 14.7922 175.054 14.1387H177.233C177.015 14.7922 177.015 16.7531 177.015 19.1497V21.0015C177.015 22.9623 176.798 25.0322 175.382 26.3392C174.401 27.2108 173.094 27.5375 171.896 27.5375C170.588 27.5375 169.063 27.2108 168.083 26.3392C167.211 25.4679 166.558 24.3784 166.558 21.873V19.0407C166.558 16.5353 166.34 14.8789 166.34 14.3341H167.187ZM75.7093 31.6888H84.7507C85.6222 31.6888 86.9295 31.6888 87.365 31.4708C87.1473 32.0155 87.0383 33.3226 87.0383 34.7389C86.4937 34.4121 85.84 34.1941 84.4239 34.1941C83.4436 34.1941 81.5915 33.9761 79.7397 33.9761C79.7397 33.9761 79.5219 33.9761 79.5219 34.1941V40.6214C79.5219 40.8392 79.5219 40.8392 79.7397 40.8392H84.2061C85.84 40.8392 86.4937 40.6214 86.8205 40.5124C86.6025 41.4927 86.4937 43.0178 86.4937 43.7803C85.949 43.4535 85.5132 43.2358 84.3149 43.2358C83.3346 43.2358 80.2845 43.0178 79.6307 43.0178C79.6307 43.0178 79.4129 43.0178 79.4129 43.2358V44.8699C79.4129 49.9896 79.4129 50.8611 79.6307 50.8611C79.8487 51.0791 79.9577 51.0791 80.2845 51.0791C81.156 51.2969 81.8095 51.2969 83.1166 51.2969C85.6222 51.2969 87.1473 51.0791 88.1278 50.6434C87.8008 51.6236 87.583 52.931 87.474 53.5845C87.2563 53.8025 86.9295 53.8025 85.84 53.8025C81.8095 53.8025 79.7397 53.5845 77.9969 53.5845C76.7986 53.5845 76.036 53.5845 75.4913 53.8025C75.7093 52.8219 75.818 49.6628 75.818 45.3056C75.818 40.7173 76.1697 36.2952 75.7093 31.6888ZM92.5937 53.5847C91.7222 53.5847 90.7419 53.5847 90.3062 53.8025C90.8507 53.258 91.9402 51.8417 93.574 49.4451L97.1689 44.1073L93.9008 38.9873C92.5938 37.0268 91.6132 35.7195 90.7419 34.9569H93.3563C94.3366 34.9569 94.9904 34.9569 95.5349 34.7389C96.0796 35.9372 98.0405 39.2054 99.3475 41.1662C100.219 40.1856 101.2 38.6606 101.308 38.2248C102.18 36.9178 102.942 35.3927 103.16 34.7392H104.686C105.666 34.7392 106.864 34.5212 107.191 34.5212C106.537 35.1747 105.339 36.6997 104.359 38.0071L100.764 43.018C101.417 44.2163 102.725 46.2862 103.705 47.7022C105.557 50.3166 107.191 52.4954 107.844 53.149H105.666C104.794 53.149 103.16 53.149 102.725 53.3667C102.507 53.04 101.417 50.7524 101.2 50.2078C100.219 48.3558 99.6746 47.5932 98.585 45.7414L95.7529 50.2078C94.8813 51.5149 94.2278 52.8222 94.1188 53.149C93.7921 53.5847 93.4653 53.5847 92.5937 53.5847ZM112.201 51.2969C109.696 49.1183 109.042 46.2859 109.042 43.9983C109.042 42.1465 109.587 39.3141 111.984 37.2445C113.944 35.6104 116.45 34.6299 120.154 34.6299C123.64 34.6299 125.6 35.2837 126.799 35.6104C126.581 36.264 126.254 37.789 126.254 39.0964C125.056 37.898 122.986 36.9175 119.827 36.9175C117.539 36.9175 116.014 37.5713 115.034 38.4426C113.4 39.7499 112.855 41.7107 112.855 43.7806C112.855 47.811 115.36 51.6236 121.025 51.6236C123.204 51.6236 125.165 51.2969 126.69 50.3166C126.472 50.9701 126.145 52.6042 126.036 53.4757C125.056 53.8025 122.877 54.347 120.589 54.347C117.539 53.9115 114.489 53.2577 112.201 51.2969ZM130.74 42.1462C130.74 38.1158 130.522 35.8282 130.413 35.0657H138.692C139.563 35.0657 140.653 35.0657 141.197 34.8477C140.98 35.3924 140.98 36.4817 140.98 37.789C140.435 37.571 139.999 37.462 138.474 37.2443C137.602 37.2443 135.969 37.0265 134.443 37.0265C134.443 37.0265 134.225 37.0265 134.225 37.2443V42.3642C134.225 42.3642 134.225 42.582 134.443 42.582H138.474C139.999 42.582 140.435 42.3642 140.762 42.3642C140.544 43.2358 140.435 44.6518 140.435 45.3054C139.89 44.9786 139.454 44.9786 138.474 44.7608C137.602 44.7608 135.206 44.5428 134.443 44.5428C134.443 44.5428 134.225 44.5428 134.225 44.7608V45.9591C134.225 50.3163 134.225 50.7521 134.443 50.9701C134.661 51.1879 134.77 51.1879 135.097 51.1879C135.751 51.1879 136.622 51.4056 137.602 51.4056C139.781 51.4056 141.088 51.1879 141.96 50.8611C141.633 51.7327 141.415 53.0397 141.306 53.6935C141.088 53.6935 140.762 53.9112 139.781 53.9112C136.295 53.9112 134.334 53.6935 132.809 53.6935H130.522C130.74 52.8219 130.849 50.2076 130.849 46.6127L130.74 42.1462ZM129.066 19.3317C129.066 16.4993 128.913 14.8918 128.837 14.3559H134.655C135.267 14.3559 136.032 14.3559 136.415 14.2028C136.262 14.5855 136.262 15.3509 136.262 16.2697C135.879 16.1166 135.573 16.0399 134.502 15.8868C133.889 15.8868 132.741 15.7339 131.669 15.7339C131.669 15.7339 131.516 15.7339 131.516 15.8868V19.4851C131.516 19.4851 131.516 19.638 131.669 19.638H134.502C135.573 19.638 135.879 19.4851 136.109 19.4851C135.956 20.0974 135.879 21.0926 135.879 21.5518C135.497 21.3222 135.191 21.3222 134.502 21.1691C133.889 21.1691 132.205 21.0159 131.669 21.0159C131.669 21.0159 131.516 21.0159 131.516 21.1691V22.0112C131.516 25.0732 131.516 25.3794 131.669 25.5323C131.822 25.6854 131.899 25.6854 132.128 25.6854C132.588 25.6854 133.2 25.8386 133.889 25.8386C135.42 25.8386 136.339 25.6854 136.951 25.4559C136.721 26.0681 136.568 26.987 136.492 27.4461C136.339 27.4461 136.109 27.5993 135.42 27.5993C132.97 27.5993 131.592 27.4461 130.521 27.4461H128.913C129.066 26.8338 129.143 24.9965 129.143 22.4703L129.066 19.3317ZM146.173 42.1462C146.173 38.6603 145.972 35.8282 145.863 35.0657H147.497C148.477 35.0657 149.458 35.0657 149.785 34.8477C149.567 35.8282 149.458 38.4426 149.458 41.8195V45.9591C149.458 50.4253 149.458 50.9701 149.676 50.9701C149.894 50.9701 150.003 51.1879 150.329 51.1879C150.874 51.1879 151.636 51.4056 152.835 51.4056C155.122 51.4056 156.647 51.1879 157.519 50.7521C157.192 51.4056 156.865 52.931 156.647 53.5845H154.795C150.983 53.5845 149.676 53.3665 147.715 53.3665H145.754C145.972 52.4952 146.081 49.8806 146.081 46.2859L146.173 42.1462ZM160.787 42.1772C160.787 38.6913 160.678 35.8282 160.569 35.0657H162.203C163.183 35.0657 164.164 35.0657 164.491 34.8477C164.273 35.8282 164.164 38.4426 164.164 41.8195V45.9591C164.164 50.4253 164.164 50.9701 164.382 50.9701C164.6 50.9701 164.708 51.1879 165.035 51.1879C165.58 51.1879 166.342 51.4056 167.541 51.4056C169.828 51.4056 171.353 51.1879 172.225 50.7521C171.898 51.4056 171.571 52.931 171.353 53.5845H169.502C165.689 53.5845 164.382 53.3665 162.421 53.3665H160.46C160.678 52.4952 160.787 49.8806 160.787 46.2859V42.1772ZM175.493 42.1462C175.493 38.1158 175.275 35.8282 175.166 35.0657H183.445C184.317 35.0657 185.406 35.0657 185.951 34.8477C185.733 35.3924 185.733 36.4817 185.733 37.789C185.188 37.571 184.752 37.462 183.227 37.2443C182.356 37.2443 180.722 37.0265 179.197 37.0265C179.197 37.0265 178.979 37.0265 178.979 37.2443V42.3642C178.979 42.3642 178.979 42.582 179.197 42.582H183.227C184.752 42.582 185.188 42.3642 185.515 42.3642C185.297 43.2358 185.188 44.6518 185.188 45.3054C184.644 44.9786 184.208 44.9786 183.227 44.7608C182.356 44.7608 179.959 44.5428 179.197 44.5428C179.197 44.5428 178.979 44.5428 178.979 44.7608V45.9591C178.979 50.3163 178.979 50.7521 179.197 50.9701C179.415 51.1879 179.524 51.1879 179.85 51.1879C180.504 51.1879 181.375 51.4056 182.356 51.4056C184.535 51.4056 185.842 51.1879 186.713 50.8611C186.386 51.7327 186.169 53.0397 186.06 53.6935C185.842 53.6935 185.515 53.9112 184.535 53.9112C181.049 53.9112 179.088 53.6935 177.563 53.6935H175.275C175.493 52.8219 175.602 50.2076 175.602 46.6127L175.493 42.1462ZM192.596 53.5845C192.269 53.5845 190.962 53.5845 190.635 53.8022C190.853 51.5146 190.962 40.5121 190.962 36.2637C190.962 34.9567 190.962 34.9567 191.18 34.9567C191.398 34.9567 191.507 35.1747 192.051 35.6102C194.993 38.2245 201.856 45.1964 205.015 47.593C205.015 45.3054 204.797 38.6603 204.688 35.2834C205.015 35.2834 205.668 35.5014 206.213 35.5014C207.084 35.5014 208.065 35.5014 208.174 35.2834C207.956 36.8085 207.629 43.5625 207.629 49.009V53.0397C207.629 54.238 207.629 54.347 207.302 54.347C207.084 54.347 206.431 54.0202 204.688 52.1682C202.073 49.8806 196.409 43.998 193.794 41.6017C193.794 46.3947 194.012 52.0594 194.339 53.9112C193.685 53.5845 193.032 53.5845 192.596 53.5845ZM215.799 51.2969C213.293 49.1183 212.64 46.2859 212.64 43.9983C212.64 42.1465 213.184 39.3141 215.581 37.2445C217.542 35.6104 220.047 34.6299 223.751 34.6299C227.237 34.6299 229.198 35.2837 230.396 35.6104C230.178 36.264 229.851 37.789 229.851 39.0964C228.653 37.898 226.583 36.9175 223.424 36.9175C221.137 36.9175 219.611 37.5713 218.631 38.4426C216.997 39.7499 216.452 41.7107 216.452 43.7806C216.452 47.811 218.958 51.6236 224.623 51.6236C226.801 51.6236 228.762 51.2969 230.287 50.3166C230.069 50.9701 229.742 52.6042 229.634 53.4757C228.653 53.8025 226.474 54.347 224.187 54.347C221.028 53.9115 218.086 53.2577 215.799 51.2969ZM234.495 42.2523C234.495 38.2219 234.277 35.9343 234.168 35.1715H242.447C243.318 35.1715 244.408 35.1715 244.952 34.9538C244.734 35.4986 244.734 36.5878 244.734 37.8949C244.19 37.6771 243.754 37.5681 242.229 37.3504C241.357 37.3504 239.723 37.1324 238.198 37.1324C238.198 37.1324 237.98 37.1324 237.98 37.3504V42.4704C237.98 42.4704 237.98 42.6881 238.198 42.6881H242.229C243.754 42.6881 244.19 42.4704 244.516 42.4704C244.299 43.3416 244.19 44.758 244.19 45.4115C243.645 45.0847 243.209 45.0847 242.229 44.8667C241.357 44.8667 238.961 44.6489 238.198 44.6489C238.198 44.6489 237.98 44.6489 237.98 44.8667V46.065C237.98 50.4224 237.98 50.8582 238.198 51.076C238.416 51.294 238.525 51.294 238.852 51.294C239.505 51.294 240.377 51.5117 241.357 51.5117C243.536 51.5117 244.843 51.294 245.715 50.9672C245.388 51.8385 245.17 53.1458 245.061 53.7993C244.843 53.7993 244.516 54.0174 243.536 54.0174C240.05 54.0174 238.089 53.7993 236.564 53.7993H234.277C234.495 52.9281 234.604 50.3134 234.604 46.7188L234.495 42.2523ZM102.178 11.3063C101.851 10.9796 101.197 10.326 100.979 9.99927L97.9291 12.6136L98.5826 13.4852C99.5629 12.8314 101.633 11.5243 102.178 11.3063Z" fill="white"/>
</g>
</svg>
