<svg width="180" height="135" viewBox="0 0 180 135" fill="none" xmlns="http://www.w3.org/2000/svg">
<path d="M135.27 131.356H105.242V134.342H135.27V131.356Z" fill="#E42328"/>
<path d="M105.242 131.356H74.6045V134.342H105.242V131.356Z" fill="white"/>
<path d="M74.6052 131.356H44.5771V134.342H74.6052V131.356Z" fill="#253784"/>
<circle cx="90.3598" cy="28.3152" r="26.9222" stroke="white" stroke-width="1.59303"/>
<path d="M90.3952 55.6771C105.048 55.6771 116.866 43.496 116.866 28.5466C116.866 13.5971 105.048 1.4161 90.3952 1.4161C75.742 1.4161 63.9246 13.5971 63.9246 28.5466C63.9246 43.496 75.742 55.6771 90.3952 55.6771Z" stroke="white" stroke-width="2.78498"/>
<path d="M90.7141 2C76.1867 2 64.4294 13.7573 64.4294 28.2846C64.4294 41.7655 74.5863 52.9072 87.6978 54.4461C87.5131 53.3997 85.174 38.3183 85.174 38.2568C85.174 38.1952 85.174 38.1337 85.2971 38.1337H86.8976C87.1438 38.1337 87.1438 37.949 87.2053 37.8874L90.0985 22.5599C90.0985 22.5599 90.0985 22.5599 90.0985 22.4983C90.1601 22.1905 89.8523 22.129 89.8523 22.129C88.3134 22.129 82.5271 22.129 82.5271 22.129C82.5271 22.129 82.1577 22.129 82.2808 21.8212C82.2808 21.8212 84.6815 7.47853 84.8662 6.2474C84.8662 6.18584 84.9278 6.12428 84.9893 6.12428H92.807C92.9301 6.12428 92.8685 6.2474 92.8685 6.2474L92.6223 7.2323H86.7129L85.6664 13.1417C85.6664 13.2648 85.6664 13.5111 85.9742 13.5111H91.0834L90.8372 14.496C90.8372 14.496 90.8372 14.496 90.7756 14.496H85.5433C85.2971 14.496 85.2355 14.6806 85.2355 14.7422L84.1891 20.7132H90.2832C90.4063 20.7132 90.4063 20.7747 90.4063 20.7747L90.0369 21.6981C89.9754 21.9443 90.2216 22.0674 90.2832 22.0674H91.8221C96.3157 21.8212 97.9777 24.0372 98.0393 26.1917C98.1008 28.4693 96.3157 30.7469 93.6072 30.87C92.807 30.9315 92.1299 30.6238 91.9452 30.6238L91.8836 30.3775C97.4237 30.9931 98.9626 22.4983 91.6374 23.4832L88.8058 38.1952H87.1438C86.8976 38.1952 86.8976 38.3799 86.8976 38.4414L88.9289 50.5681C88.9289 50.5681 95.7617 38.1337 95.7617 38.0721H97.4237L88.3134 54.3846C89.052 54.4461 89.8523 54.5077 90.5909 54.5077C105.118 54.5077 116.876 42.7504 116.876 28.2231C116.999 13.7573 105.241 2 90.7141 2Z" fill="white"/>
<path d="M36.6853 79.2332C36.6853 76.6 36.7043 74.6537 36.3608 73.9668C36.7043 73.9668 37.0477 73.9668 37.3912 73.9668C37.7347 73.9668 39.3375 73.9668 40.1389 73.9668C41.5128 73.9668 42.7721 74.1958 43.5735 74.6537C44.4894 75.2262 45.2908 76.2565 45.2908 77.6304C45.2908 79.2332 44.3749 80.3781 43.0011 81.4085C44.0315 83.0113 45.4053 84.7286 46.4357 86.1025C47.3516 87.0184 47.8096 87.4763 48.153 87.7053C47.8096 87.9343 47.1226 87.9343 46.5502 87.9343C45.5198 87.9343 44.9474 87.5908 44.2605 87.0184C43.2301 85.988 41.6272 83.5837 40.9403 82.4389C40.9403 82.2099 40.7113 82.2099 40.7113 82.2099C40.3679 82.2099 39.3375 82.2099 38.6506 82.2099C38.6506 82.2099 38.6506 82.2099 38.6506 82.4389V83.1258C38.6506 85.4155 38.8795 87.1328 38.8795 88.0487C38.6506 88.0487 38.1926 88.0487 37.8492 88.0487C37.2767 88.0487 36.5898 88.0487 36.2463 88.0487C37.1009 85.485 36.6853 79.2332 36.6853 79.2332ZM38.994 80.4926C38.994 80.6071 38.994 80.6071 38.994 80.4926C39.3375 80.836 40.0244 80.836 40.9403 80.836C41.5128 80.836 41.8562 80.836 41.9707 80.6071C42.5431 80.0346 43.2301 79.3477 43.2301 78.2028C43.2301 76.2565 41.8562 75.2262 40.2534 75.2262C39.681 75.2262 39.3375 75.2262 38.994 75.2262C38.994 75.2262 38.994 75.2262 38.994 75.4551V80.4926Z" fill="white"/>
<path d="M64.2921 70.7615C63.9487 70.4181 63.2618 69.7312 63.0328 69.3877L59.8271 72.1354L60.5141 73.0513C61.5445 72.3644 63.7197 70.9905 64.2922 70.7615L64.2921 70.7615Z" fill="white"/>
<path d="M56.9416 79.195C56.9416 76.2182 56.7806 74.5288 56.7002 73.9656C57.1025 73.9656 57.6656 73.9656 58.3092 73.9656H62.8145C63.4582 73.9656 64.2627 73.9656 64.6649 73.8047C64.504 74.2069 64.504 75.0115 64.504 75.9769C64.1018 75.816 63.78 75.7355 62.6536 75.5746C62.01 75.5746 60.8032 75.4137 59.6769 75.4137C59.6769 75.4137 59.516 75.4137 59.516 75.5746V79.3559C59.516 79.3559 59.516 79.5168 59.6769 79.5168C60.0792 79.5168 61.8491 79.5168 62.6536 79.5168C63.78 79.5168 64.1018 79.3559 64.3431 79.3559C64.1822 79.9995 64.1018 81.0454 64.1018 81.5281C63.6995 81.2867 63.3777 81.2867 62.6536 81.1258C62.01 81.1258 60.2401 80.9649 59.6769 80.9649C59.6769 80.9649 59.516 80.9649 59.516 81.1258V82.0108C59.516 85.2289 59.516 85.5507 59.6769 85.7116C59.8378 85.8725 59.9183 85.8725 60.1596 85.8725C60.6423 85.8725 61.286 86.0334 62.01 86.0334C63.6191 86.0334 64.5845 85.8725 65.2281 85.6311C64.9867 86.2747 64.8258 87.2401 64.7454 87.7229C64.5845 87.7229 64.3431 87.8838 63.6191 87.8838C61.0446 87.8838 59.5965 87.7229 58.4701 87.7229C57.5852 87.7229 57.022 87.7229 56.7806 87.7229C56.9415 87.0792 57.022 85.1484 57.022 82.4935L56.9416 79.195Z" fill="white"/>
<path d="M92.5529 79.1959C92.5529 76.2192 92.392 74.5297 92.3115 73.9666C92.7138 73.9666 93.2769 73.9666 93.9206 73.9666H98.4259C99.0695 73.9666 99.874 73.9666 100.276 73.8057C100.115 74.2079 100.115 75.0124 100.115 75.9779C99.7131 75.817 99.3913 75.7365 98.265 75.5756C97.6213 75.5756 96.4146 75.4147 95.2882 75.4147C95.2882 75.4147 95.1273 75.4147 95.1273 75.5756V79.3568C95.1273 79.3568 95.1273 79.5177 95.2882 79.5177C95.6905 79.5177 97.4604 79.5177 98.265 79.5177C99.3913 79.5177 99.7131 79.3568 99.9545 79.3568C99.7935 80.0005 99.7131 81.0463 99.7131 81.529C99.3108 81.2877 98.989 81.2877 98.265 81.1268C97.6213 81.1268 95.8514 80.9659 95.2882 80.9659C95.2882 80.9659 95.1273 80.9659 95.1273 81.1268V82.0118C95.1273 85.2298 95.1273 85.5516 95.2882 85.7125C95.4491 85.8734 95.5296 85.8734 95.771 85.8734C96.2537 85.8734 96.8973 86.0343 97.6213 86.0343C99.2304 86.0343 100.196 85.8734 100.839 85.6321C100.598 86.2757 100.437 87.2411 100.357 87.7238C100.196 87.7238 99.9544 87.8847 99.2304 87.8847C96.6559 87.8847 95.2078 87.7238 94.0815 87.7238C93.1965 87.7238 92.6333 87.7238 92.392 87.7238C92.5529 87.0802 92.6333 85.1494 92.6333 82.4945L92.5529 79.1959Z" fill="white"/>
<path d="M74.4822 84.6144C75.0546 85.3013 76.4285 86.2172 77.8023 86.2172C79.4051 86.2172 80.0921 85.3013 80.0921 84.2709C80.0921 83.355 79.7486 82.6681 78.3748 81.8667L77.4588 81.2942C75.3981 79.9204 75.0546 78.661 75.0546 77.5161C75.0546 75.4554 76.6574 73.8525 79.2907 73.8525C79.9776 73.8525 80.6645 74.0815 81.2369 74.0815C81.9239 74.3105 82.2673 74.3105 82.4963 74.3105C82.4963 74.5395 82.2673 75.6843 82.2673 76.7147C81.9239 76.3713 81.008 75.4554 79.5196 75.4554C78.2603 75.4554 77.4588 76.3713 77.4588 77.1727C77.4588 77.9741 77.6878 78.5465 79.0617 79.5769L79.7486 79.8059C82.0383 81.1797 82.4963 82.4391 82.4963 83.8129C82.4963 84.8433 81.9239 86.2172 80.779 87.1331C79.8631 87.7055 78.7182 88.049 77.8023 88.049C76.543 88.049 75.1691 87.7055 74.4822 87.1331C74.4822 86.9041 74.7112 85.5303 74.4822 84.6144Z" fill="white"/>
<path d="M113.523 83.5839C112.951 84.9578 112.264 86.6751 112.149 87.591C111.92 87.591 111.577 87.591 111.119 87.591C110.661 87.591 109.86 87.591 109.745 87.591C110.318 86.5606 111.004 84.9578 111.806 82.897L115.469 74.3104C115.813 73.6235 115.813 73.3945 116.042 73.3945C116.271 73.3945 116.271 73.6235 116.614 74.3104C116.843 74.8829 118.675 78.8899 120.278 82.5535C121.194 84.4998 122.224 86.7896 122.682 87.4765C122.11 87.4765 121.766 87.4765 121.423 87.4765C120.736 87.4765 120.049 87.4765 119.706 87.4765C119.362 86.5606 118.675 84.7288 118.103 83.4694L113.523 83.5839ZM117.53 82.0956L115.813 77.5161L114.096 82.0956H117.53Z" fill="white"/>
<path d="M132.617 73.9438C133.304 73.9438 134.068 73.9438 134.411 73.9438C134.182 74.6307 134.131 76.8294 134.131 79.3482V81.7524C134.131 84.0421 134.703 84.8436 135.39 85.5305C136.306 86.2174 137.107 86.2174 137.794 86.2174C138.481 86.2174 139.512 85.9884 140.084 85.3015C141 84.3856 141.115 83.2407 141.115 80.951V79.0047C141.115 76.3715 140.886 74.4252 140.886 73.7383C141.115 73.7383 141.572 73.7383 141.916 73.7383C142.488 73.7383 142.946 73.7383 143.175 73.7383C142.946 74.4252 142.946 76.486 142.946 79.0047V80.951C142.946 83.0118 142.717 85.187 141.229 86.5609C140.199 87.4768 138.825 87.8202 137.565 87.8202C136.192 87.8202 134.589 87.4768 133.558 86.5609C132.642 85.645 131.956 84.5001 131.956 81.8669V78.8902C131.956 76.257 131.727 74.5162 131.727 73.9438C131.956 73.9438 132.273 73.9438 132.617 73.9438Z" fill="white"/>
<path d="M0.229649 93.1984C0.803772 93.1984 1.83719 93.1984 2.64097 93.1984H9.76009C10.6787 93.1984 12.0566 93.1984 12.5159 92.9688C12.2862 93.5429 12.1714 94.9208 12.1714 96.4135C11.5973 96.069 10.9083 95.8394 9.41562 95.8394C8.3822 95.8394 6.43018 95.6097 4.47816 95.6097C4.47816 95.6097 4.24851 95.6097 4.24851 95.8394V102.614C4.24851 102.844 4.24851 102.844 4.47816 102.844C5.05228 102.844 8.15255 102.844 9.18597 102.844C10.9083 102.844 11.5973 102.614 11.9418 102.499C11.7121 103.533 11.5973 105.14 11.5973 105.944C11.0232 105.599 10.5639 105.37 9.30079 105.37C8.26737 105.37 5.05228 105.14 4.36334 105.14C4.36334 105.14 4.13369 105.14 4.13369 105.37V107.092C4.13369 112.489 4.13369 113.408 4.36334 113.408C4.59299 113.637 4.70781 113.637 5.05228 113.637C5.97088 113.867 6.65983 113.867 8.03772 113.867C10.6787 113.867 12.2862 113.637 13.3197 113.178C12.9752 114.211 12.7455 115.589 12.6307 116.278C12.4011 116.508 12.0566 116.508 10.9083 116.508C6.65983 116.508 4.47816 116.278 2.64097 116.278C1.3779 116.278 0.574123 116.278 0 116.508C0.229649 115.474 0.344474 112.144 0.344474 107.551C0.344474 102.715 0.715223 98.0541 0.229649 93.1984Z" fill="white"/>
<path d="M18.0268 116.279C17.1082 116.279 16.0748 116.279 15.6155 116.509C16.1896 115.934 17.3378 114.442 19.0602 111.916L22.8494 106.289L19.4047 100.892C18.0268 98.8255 16.9934 97.4476 16.0748 96.6439C16.7637 96.6439 17.7971 96.6439 18.8306 96.6439C19.864 96.6439 20.5529 96.6439 21.1271 96.4142C21.7012 97.6773 23.768 101.122 25.1459 103.189C26.0645 102.155 27.0979 100.548 27.2128 100.089C28.1314 98.7107 28.9351 97.1032 29.1648 96.4142C29.3944 96.4142 30.0834 96.4142 30.7723 96.4142C31.8058 96.4142 33.0688 96.1846 33.4133 96.1846C32.7243 96.8735 31.4613 98.4811 30.4279 99.859L26.6386 105.141C27.3276 106.404 28.7055 108.586 29.7389 110.078C31.6909 112.834 33.4133 115.131 34.1022 115.82C33.5281 115.82 32.4947 115.82 31.8058 115.82C30.8872 115.82 29.1648 115.82 28.7055 116.049C28.4758 115.705 27.3276 113.293 27.0979 112.719C26.0645 110.767 25.4904 109.964 24.3422 108.012L21.3567 112.719C20.4381 114.097 19.7492 115.475 19.6343 115.82C19.2899 116.279 18.9454 116.279 18.0268 116.279Z" fill="white"/>
<path d="M38.6942 113.867C36.0532 111.571 35.3643 108.585 35.3643 106.174C35.3643 104.222 35.9384 101.236 38.4645 99.0546C40.5314 97.3323 43.1723 96.2988 47.0764 96.2988C50.7508 96.2988 52.8176 96.9878 54.0807 97.3323C53.851 98.0212 53.5065 99.6287 53.5065 101.007C52.2435 99.7436 50.0618 98.7101 46.7319 98.7101C44.3206 98.7101 42.713 99.3991 41.6796 100.318C39.9572 101.696 39.3831 103.762 39.3831 105.944C39.3831 110.193 42.0241 114.211 47.995 114.211C50.2915 114.211 52.3583 113.867 53.9658 112.834C53.7362 113.523 53.3917 115.245 53.2769 116.163C52.2435 116.508 49.947 117.082 47.5357 117.082C44.3206 116.623 41.1055 115.934 38.6942 113.867Z" fill="white"/>
<path d="M58.2358 104.222C58.2358 99.9731 58.0062 97.5617 57.8914 96.758C58.4655 96.758 59.2693 96.758 60.1878 96.758H66.618C67.5366 96.758 68.6849 96.758 69.259 96.5283C69.0293 97.1024 69.0293 98.2507 69.0293 99.6286C68.4552 99.3989 67.9959 99.2841 66.3884 99.0545C65.4698 99.0545 63.7474 98.8248 62.1399 98.8248C62.1399 98.8248 61.9102 98.8248 61.9102 99.0545V104.451C61.9102 104.451 61.9102 104.681 62.1399 104.681C62.714 104.681 65.2401 104.681 66.3884 104.681C67.9959 104.681 68.4552 104.451 68.7997 104.451C68.57 105.37 68.4552 106.863 68.4552 107.551C67.8811 107.207 67.4218 107.207 66.3884 106.977C65.4698 106.977 62.9436 106.748 62.1399 106.748C62.1399 106.748 61.9102 106.748 61.9102 106.977V108.24C61.9102 112.833 61.9102 113.293 62.1399 113.522C62.3695 113.752 62.4843 113.752 62.8288 113.752C63.5178 113.752 64.4364 113.982 65.4698 113.982C67.7663 113.982 69.1442 113.752 70.0628 113.408C69.7183 114.326 69.4886 115.704 69.3738 116.393C69.1442 116.393 68.7997 116.623 67.7663 116.623C64.0919 116.623 62.025 116.393 60.4175 116.393C59.1544 116.393 58.3507 116.393 58.0062 116.393C58.2358 115.474 58.3507 112.719 58.3507 108.929L58.2358 104.222Z" fill="white"/>
<path d="M74.5033 104.223C74.5033 100.548 74.2912 97.5627 74.1763 96.7589C74.5208 96.7589 75.4394 96.7589 75.8987 96.7589C76.9321 96.7589 77.9656 96.7589 78.31 96.5293C78.0804 97.5627 77.9656 100.319 77.9656 103.878V108.241C77.9656 112.949 77.9656 113.523 78.1952 113.523C78.4249 113.523 78.5397 113.753 78.8842 113.753C79.4583 113.753 80.2621 113.983 81.5251 113.983C83.9364 113.983 85.544 113.753 86.4626 113.294C86.1181 113.983 85.7736 115.59 85.544 116.279C85.3143 116.279 84.9699 116.279 83.592 116.279C79.5731 116.279 78.1952 116.049 76.1284 116.049C75.0949 116.049 74.5208 116.049 74.0615 116.049C74.2912 115.131 74.406 112.375 74.406 108.586L74.5033 104.223Z" fill="white"/>
<path d="M89.907 104.255C89.907 100.581 89.7921 97.5627 89.6773 96.7589C90.0218 96.7589 90.9404 96.7589 91.3997 96.7589C92.4331 96.7589 93.4665 96.7589 93.811 96.5293C93.5814 97.5627 93.4665 100.319 93.4665 103.878V108.241C93.4665 112.949 93.4665 113.523 93.6962 113.523C93.9258 113.523 94.0407 113.753 94.3851 113.753C94.9593 113.753 95.763 113.983 97.0261 113.983C99.4374 113.983 101.045 113.753 101.964 113.294C101.619 113.983 101.275 115.59 101.045 116.279C100.815 116.279 100.471 116.279 99.093 116.279C95.0741 116.279 93.6962 116.049 91.6293 116.049C90.5959 116.049 90.0218 116.049 89.5625 116.049C89.7921 115.131 89.907 112.375 89.907 108.586L89.907 104.255Z" fill="white"/>
<path d="M105.409 104.223C105.409 99.974 105.179 97.5627 105.064 96.7589C105.639 96.7589 106.442 96.7589 107.361 96.7589H113.791C114.71 96.7589 115.858 96.7589 116.432 96.5293C116.202 97.1034 116.202 98.2517 116.202 99.6296C115.628 99.3999 115.169 99.2851 113.561 99.0554C112.643 99.0554 110.921 98.8258 109.313 98.8258C109.313 98.8258 109.083 98.8258 109.083 99.0554V104.452C109.083 104.452 109.083 104.682 109.313 104.682C109.887 104.682 112.413 104.682 113.561 104.682C115.169 104.682 115.628 104.452 115.973 104.452C115.743 105.371 115.628 106.864 115.628 107.552C115.054 107.208 114.595 107.208 113.561 106.978C112.643 106.978 110.117 106.749 109.313 106.749C109.313 106.749 109.083 106.749 109.083 106.978V108.241C109.083 112.834 109.083 113.294 109.313 113.523C109.543 113.753 109.657 113.753 110.002 113.753C110.691 113.753 111.609 113.983 112.643 113.983C114.939 113.983 116.317 113.753 117.236 113.409C116.891 114.327 116.662 115.705 116.547 116.394C116.317 116.394 115.973 116.624 114.939 116.624C111.265 116.624 109.198 116.394 107.591 116.394C106.328 116.394 105.524 116.394 105.179 116.394C105.409 115.475 105.524 112.72 105.524 108.93L105.409 104.223Z" fill="white"/>
<path d="M123.436 116.279C123.092 116.279 121.714 116.279 121.369 116.508C121.599 114.097 121.714 102.5 121.714 98.0215C121.714 96.6436 121.714 96.6436 121.943 96.6436C122.173 96.6436 122.288 96.8732 122.862 97.3325C125.962 100.088 133.196 107.437 136.526 109.963C136.526 107.552 136.296 100.548 136.182 96.988C136.526 96.988 137.215 97.2177 137.789 97.2177C138.708 97.2177 139.741 97.2177 139.856 96.988C139.626 98.5956 139.282 105.715 139.282 111.456C139.282 112.834 139.282 114.901 139.282 115.704C139.282 116.968 139.282 117.082 138.937 117.082C138.708 117.082 138.019 116.738 136.182 114.786C133.426 112.375 127.455 106.174 124.699 103.648C124.699 108.7 124.929 114.671 125.273 116.623C124.584 116.279 123.895 116.279 123.436 116.279Z" fill="white"/>
<path d="M147.893 113.867C145.252 111.571 144.563 108.585 144.563 106.174C144.563 104.222 145.138 101.236 147.664 99.0546C149.731 97.3323 152.372 96.2988 156.276 96.2988C159.95 96.2988 162.017 96.9878 163.28 97.3323C163.05 98.0212 162.706 99.6287 162.706 101.007C161.443 99.7436 159.261 98.7101 155.931 98.7101C153.52 98.7101 151.912 99.3991 150.879 100.318C149.156 101.696 148.582 103.762 148.582 105.944C148.582 110.193 151.223 114.211 157.194 114.211C159.491 114.211 161.558 113.867 163.165 112.834C162.935 113.523 162.591 115.245 162.476 116.163C161.443 116.508 159.146 117.082 156.735 117.082C153.405 116.623 150.305 115.934 147.893 113.867Z" fill="white"/>
<path d="M167.601 104.334C167.601 100.085 167.372 97.674 167.257 96.8703C167.831 96.8703 168.635 96.8703 169.553 96.8703H175.984C176.902 96.8703 178.05 96.8703 178.624 96.6406C178.395 97.2147 178.395 98.363 178.395 99.7409C177.821 99.5112 177.361 99.3964 175.754 99.1668C174.835 99.1668 173.113 98.9371 171.505 98.9371C171.505 98.9371 171.276 98.9371 171.276 99.1668V104.564C171.276 104.564 171.276 104.793 171.505 104.793C172.079 104.793 174.606 104.793 175.754 104.793C177.361 104.793 177.821 104.564 178.165 104.564C177.936 105.482 177.821 106.975 177.821 107.664C177.247 107.319 176.787 107.319 175.754 107.09C174.835 107.09 172.309 106.86 171.505 106.86C171.505 106.86 171.276 106.86 171.276 107.09V108.353C171.276 112.946 171.276 113.405 171.505 113.635C171.735 113.864 171.85 113.864 172.194 113.864C172.883 113.864 173.802 114.094 174.835 114.094C177.132 114.094 178.51 113.864 179.428 113.52C179.084 114.438 178.854 115.816 178.739 116.505C178.51 116.505 178.165 116.735 177.132 116.735C173.457 116.735 171.391 116.505 169.783 116.505C168.52 116.505 167.716 116.505 167.372 116.505C167.601 115.587 167.716 112.831 167.716 109.042L167.601 104.334Z" fill="white"/>
</svg>
